<?xml version="1.0" encoding="UTF-8" standalone="no"?>
<svg width="18px" height="17px" viewBox="0 0 18 17" version="1.1" xmlns="http://www.w3.org/2000/svg" xmlns:xlink="http://www.w3.org/1999/xlink">
    <!-- Generator: Sketch 39.1 (31720) - http://www.bohemiancoding.com/sketch -->
    <title>Shape Copy 2</title>
    <desc>Created with Sketch.</desc>
    <defs></defs>
    <g id="Page-1" stroke="none" stroke-width="1" fill="none" fill-rule="evenodd">
        <g id="staltrub-catalog-copy" transform="translate(-62.000000, -22.000000)" fill="#FBFCFD">
            <g id="header">
                <path d="M72.2442071,37.3778025 L63.7948984,29.3123571 C63.088497,28.6380444 62.2593847,27.7162574 62.1170823,26.5638322 C61.9752809,25.4160945 62.5240973,24.2685002 63.7948984,23.0554261 C64.5285578,22.3551416 65.3438406,22.0000488 66.218199,22.0000488 C68.301026,22.0000488 69.8917571,24.0617773 70.0261928,24.2411412 C70.7339471,25.1392522 70.4338092,26.2173968 70.1688961,27.1689822 C69.8863456,28.1840863 69.7381806,28.830179 70.231429,29.3010213 L72.2560323,31.2335599 C72.4784049,31.4458311 72.7393596,31.5404874 73.102331,31.5404396 C73.5150583,31.5403918 73.9883643,31.4203854 74.4894794,31.2933 C75.0361914,31.1546398 75.6014929,31.0112921 76.1587273,31.0112921 C76.6996771,31.0112921 77.1699767,31.1519613 77.5567488,31.4296166 C77.7352281,31.5514406 79.7247067,32.9499052 79.8930144,34.8121332 C79.9769929,35.7413818 79.6088104,36.6045766 78.7987887,37.3778025 C77.6554085,38.4693874 76.5727072,38.9999698 75.4889537,38.9999698 C75.4889537,38.9999698 74.5930607,39.0158166 73.7095996,38.5987672 C73.1307275,38.325503 72.5574004,37.6767688 72.2442071,37.3778025 Z M65.736341,23.3224362 C65.1960727,23.3224362 64.7433023,23.8491422 64.2437254,24.3224642 C63.2568595,25.257324 63.2023375,25.8054007 63.2967132,26.5638322 C63.3730095,27.1765125 63.4027541,27.2705605 64.2437254,28.0672547 L72.7358786,36.1122493 C73.6621103,36.9896674 74.6942866,37.6908048 75.4078456,37.6908048 C76.146182,37.6908048 76.9431382,37.275831 77.8442904,36.4221244 C78.3899976,35.9051963 78.6306708,35.3785356 78.5801591,34.8121332 C78.4599484,33.4635878 76.4667413,32.0020627 76.4496187,31.9906125 C76.2610183,31.8553095 76.0537342,31.7980109 75.7799741,31.7980109 C75.3843414,31.7980109 74.9186067,31.9152321 74.425476,32.0393235 C73.8659699,32.1801608 73.2873269,32.3257689 72.7081299,32.3258167 C72.0118949,32.3258167 71.4263021,32.1053052 70.9672654,31.670389 L69.4177203,29.9794342 C68.3840695,29.0001572 68.6452399,27.7917904 68.9323455,26.7684302 C69.1884794,25.855278 68.9312376,24.969646 68.607268,24.5656454 C68.5814834,24.5315811 68.0358033,23.0554261 66.5498138,23.0554261 L65.736341,23.3224362 Z" id="Shape-Copy-2"></path>
            </g>
        </g>
    </g>
</svg>