<?xml version="1.0" encoding="UTF-8" standalone="no"?>
<svg width="20px" height="15px" viewBox="0 0 20 15" version="1.1" xmlns="http://www.w3.org/2000/svg" xmlns:xlink="http://www.w3.org/1999/xlink">
    <!-- Generator: Sketch 39.1 (31720) - http://www.bohemiancoding.com/sketch -->
    <title>Group Copy</title>
    <desc>Created with Sketch.</desc>
    <defs></defs>
    <g id="Page-1" stroke="none" stroke-width="1" fill="none" fill-rule="evenodd">
        <g id="staltrub-catalog-copy" transform="translate(-106.000000, -23.000000)" fill="#FFFFFF">
            <g id="header">
                <g id="Group-Copy" transform="translate(106.000000, 23.000000)">
                    <path d="M19.321804,-8.8817842e-16 L0.678195999,-8.8817842e-16 C0.30366904,-8.8817842e-16 0,0.313278953 0,0.699658194 L0,14.3003418 C0,14.6866651 0.30366904,15 0.678195999,15 L19.321804,15 C19.6962767,15 20,14.6866651 20,14.3003418 L20,0.699658194 C20,0.313334925 19.6962767,-8.8817842e-16 19.321804,-8.8817842e-16 L19.321804,-8.8817842e-16 Z M18.643608,13.6007396 L1.356392,13.6007396 L1.356392,1.39931639 L18.643608,1.39931639 L18.643608,13.6007396 L18.643608,13.6007396 Z" id="Shape"></path>
                    <path d="M3.31407276,4.16960199 L9.65359676,7.90610358 C9.75978379,7.96871804 9.87986494,8 9.99999892,8 C10.1201329,8 10.2402141,7.96871804 10.3464011,7.90610358 L16.6859251,4.16960199 C16.9964033,3.98661009 17.093081,3.59743013 16.9017859,3.30042836 C16.7104907,3.00342659 16.3035461,2.91094518 15.9931736,3.09398762 L9.99999892,6.62627206 L4.00687707,3.09398762 C3.69650454,2.91109679 3.28966559,3.00337605 3.09826479,3.30042836 C2.90691683,3.59737959 3.00354174,3.98661009 3.31407276,4.16960199 L3.31407276,4.16960199 Z" id="Shape"></path>
                </g>
            </g>
        </g>
    </g>
</svg>